<svg xmlns="http://www.w3.org/2000/svg" viewBox="0 0 1600 900" preserveAspectRatio="xMidYMid slice">
  <defs>
    <linearGradient id="bg" x1="0" y1="0" x2="0" y2="1">
      <stop offset="0" stop-color="#0e2a20"/>
      <stop offset="1" stop-color="#214a37"/>
    </linearGradient>
    <radialGradient id="glow" cx="50%" cy="6%" r="55%">
      <stop offset="0" stop-color="#e6f1c4" stop-opacity="0.42"/>
      <stop offset="0.45" stop-color="#bcd98f" stop-opacity="0.08"/>
      <stop offset="1" stop-color="#bcd98f" stop-opacity="0"/>
    </radialGradient>
  </defs>
  <rect width="1600" height="900" fill="url(#bg)"/>
  <g fill="#11271d">
    <rect x="120" y="0" width="36" height="900"/>
    <rect x="320" y="0" width="22" height="900"/>
    <rect x="520" y="0" width="44" height="900"/>
    <rect x="980" y="0" width="28" height="900"/>
    <rect x="1180" y="0" width="40" height="900"/>
    <rect x="1420" y="0" width="24" height="900"/>
  </g>
  <rect width="1600" height="900" fill="url(#glow)"/>
  <g opacity="0.16" fill="#eaf4cf">
    <polygon points="800,40 560,900 700,900"/>
    <polygon points="800,40 760,900 880,900"/>
    <polygon points="800,40 980,900 1140,900"/>
  </g>
  <polygon points="770,900 830,900 812,560 788,560" fill="#3a3526"/>
  <g fill="#142019">
    <ellipse cx="800" cy="612" rx="11" ry="16"/>
    <polygon points="786,672 814,672 810,628 790,628"/>
  </g>
</svg>
