<svg xmlns="http://www.w3.org/2000/svg" viewBox="0 0 1600 900" preserveAspectRatio="xMidYMid slice">
  <defs>
    <linearGradient id="space" x1="0" y1="0" x2="0" y2="1">
      <stop offset="0" stop-color="#040813"/>
      <stop offset="1" stop-color="#081120"/>
    </linearGradient>
    <radialGradient id="rim" cx="50%" cy="88%" r="62%">
      <stop offset="0" stop-color="#1a4664" stop-opacity="0.65"/>
      <stop offset="1" stop-color="#1a4664" stop-opacity="0"/>
    </radialGradient>
  </defs>
  <rect width="1600" height="900" fill="url(#space)"/>
  <g fill="#cdd8ec">
    <circle cx="140" cy="120" r="1.5"/><circle cx="300" cy="70" r="1.2"/><circle cx="470" cy="150" r="1.6"/>
    <circle cx="640" cy="90" r="1.2"/><circle cx="980" cy="120" r="1.5"/><circle cx="1160" cy="80" r="1.3"/>
    <circle cx="1330" cy="150" r="1.6"/><circle cx="1480" cy="90" r="1.2"/><circle cx="220" cy="250" r="1.2"/>
    <circle cx="1280" cy="250" r="1.3"/><circle cx="80" cy="360" r="1.3"/><circle cx="1520" cy="340" r="1.4"/>
  </g>
  <rect width="1600" height="900" fill="url(#rim)"/>
  <path d="M0,600 Q800,430 1600,600 L1600,900 L0,900 Z" fill="#0a1c26"/>
  <g fill="none" stroke="#3f7d8c" stroke-opacity="0.25" stroke-width="1.5">
    <path d="M0,600 Q800,430 1600,600"/>
    <path d="M250,900 Q330,640 800,540"/>
    <path d="M1350,900 Q1270,640 800,540"/>
    <path d="M800,540 L800,900"/>
    <path d="M40,720 Q800,560 1560,720"/>
  </g>
  <g fill="#1f8a52" opacity="0.5">
    <ellipse cx="770" cy="600" rx="90" ry="46"/>
    <ellipse cx="880" cy="672" rx="64" ry="38"/>
    <ellipse cx="690" cy="690" rx="58" ry="34"/>
  </g>
  <path d="M0,600 Q800,430 1600,600" fill="none" stroke="#4f95a5" stroke-opacity="0.6" stroke-width="3"/>
  <path d="M858 470 Q1130 540 838 740" fill="none" stroke="#e0aa5a" stroke-width="3" stroke-opacity="0.9"/>
  <g>
    <circle cx="858" cy="470" r="7" fill="#eebd76"/>
    <circle cx="858" cy="470" r="15" fill="none" stroke="#e0aa5a" stroke-opacity="0.5" stroke-width="2"/>
    <circle cx="838" cy="740" r="7" fill="#eebd76"/>
    <circle cx="838" cy="740" r="15" fill="none" stroke="#e0aa5a" stroke-opacity="0.5" stroke-width="2"/>
  </g>
</svg>
