<svg xmlns="http://www.w3.org/2000/svg" viewBox="0 0 1600 900" preserveAspectRatio="xMidYMid slice">
  <defs>
    <linearGradient id="bg" x1="0" y1="0" x2="0" y2="1">
      <stop offset="0" stop-color="#08202a"/>
      <stop offset="1" stop-color="#0f3a3a"/>
    </linearGradient>
    <pattern id="grid" width="80" height="80" patternUnits="userSpaceOnUse">
      <path d="M80 0H0V80" fill="none" stroke="#7fcfc0" stroke-opacity="0.08" stroke-width="1"/>
    </pattern>
    <radialGradient id="halo" cx="50%" cy="42%" r="55%">
      <stop offset="0" stop-color="#1d6e6e" stop-opacity="0.5"/>
      <stop offset="1" stop-color="#1d6e6e" stop-opacity="0"/>
    </radialGradient>
  </defs>
  <rect width="1600" height="900" fill="url(#bg)"/>
  <rect width="1600" height="900" fill="url(#halo)"/>
  <rect width="1600" height="900" fill="url(#grid)"/>
  <g fill="none" stroke="#8fd2c4" stroke-opacity="0.22">
    <ellipse cx="430" cy="320" rx="70" ry="50"/>
    <ellipse cx="430" cy="320" rx="140" ry="100"/>
    <ellipse cx="430" cy="320" rx="210" ry="150"/>
    <ellipse cx="430" cy="320" rx="280" ry="200"/>
    <ellipse cx="1180" cy="360" rx="60" ry="44"/>
    <ellipse cx="1180" cy="360" rx="130" ry="95"/>
    <ellipse cx="1180" cy="360" rx="200" ry="146"/>
  </g>
  <path d="M0,760 Q260,720 520,752 T1040,748 T1600,756 L1600,900 L0,900 Z" fill="#0c2c28" opacity="0.9"/>
  <path d="M0,820 Q300,795 600,815 T1200,812 T1600,818 L1600,900 L0,900 Z" fill="#08201d"/>
  <g stroke="#e8f0ee" stroke-width="3" fill="none">
    <line x1="454" y1="300" x2="506" y2="300"/>
    <line x1="480" y1="276" x2="480" y2="324"/>
    <circle cx="454" cy="300" r="11"/>
    <circle cx="506" cy="300" r="11"/>
  </g>
  <circle cx="480" cy="300" r="58" fill="none" stroke="#b5834a" stroke-opacity="0.8" stroke-width="2"/>
</svg>
